<svg viewBox="0 0 18 21" fill="none" xmlns="http://www.w3.org/2000/svg"><path d="m9.766 3.94-1.374-.002c-3.135-.008-5.857 2.54-5.878 5.625v3.553c0 .74-.094 1.463-.498 2.079l-.27.41c-.409.623.032 1.457.768 1.457h13.153c.736 0 1.175-.834.767-1.456l-.27-.411c-.403-.616-.497-1.34-.497-2.08V9.563c-.038-3.086-2.766-5.615-5.9-5.623v0ZM11.902 17.063a2.813 2.813 0 1 1-5.625 0" stroke="currentColor" stroke-width="1.5" stroke-linecap="round" stroke-linejoin="round"/><path d="M9.09 1.125A1.875 1.875 0 0 1 10.965 3v.938h-3.75V3A1.875 1.875 0 0 1 9.09 1.125Z" stroke="currentColor" stroke-width="1.5" stroke-linecap="round" stroke-linejoin="round"/></svg>
