<svg viewBox="0 0 16 16" fill="none" xmlns="http://www.w3.org/2000/svg"><path d="M7.9 7.899a3.79 3.79 0 1 0 0-7.58 3.79 3.79 0 0 0 0 7.58Zm2.526-3.79a2.527 2.527 0 1 1-5.054 0 2.527 2.527 0 0 1 5.054 0Zm5.053 10.106c0 1.264-1.263 1.264-1.263 1.264H1.583s-1.264 0-1.264-1.264c0-1.263 1.264-5.053 7.58-5.053 6.317 0 7.58 3.79 7.58 5.053Zm-1.263-.005c-.002-.31-.195-1.245-1.051-2.102-.824-.824-2.374-1.683-5.266-1.683-2.893 0-4.442.86-5.265 1.683-.857.857-1.049 1.791-1.051 2.102h12.633Z" fill="#000"/></svg>
