<svg width="8" height="11" viewBox="0 0 8 11" fill="none" xmlns="http://www.w3.org/2000/svg">
<path d="M7.04034 5.05569C6.91256 4.88901 6.757 4.74457 6.61255 4.60012C6.24032 4.26677 5.81809 4.02788 5.46252 3.67787C4.63472 2.86673 4.45138 1.52781 4.97917 0.5C4.45138 0.627781 3.99026 0.916679 3.5958 1.23335C2.15687 2.38894 1.59019 4.42789 2.26799 6.17794C2.29021 6.2335 2.31243 6.28905 2.31243 6.36128C2.31243 6.4835 2.2291 6.59462 2.11798 6.63906C1.9902 6.69462 1.85686 6.66129 1.7513 6.5724C1.71958 6.54617 1.69318 6.51411 1.67352 6.47795C1.04573 5.68348 0.945725 4.54456 1.36796 3.63342C0.440155 4.389 -0.0654148 5.66681 0.00680949 6.8724C0.0401438 7.15019 0.073478 7.42798 0.167925 7.70576C0.245705 8.0391 0.395709 8.37245 0.562381 8.6669C1.1624 9.62804 2.20132 10.3169 3.31802 10.4558C4.50694 10.6058 5.7792 10.3892 6.69033 9.56693C7.70703 8.64468 8.0626 7.16686 7.54036 5.90015L7.46813 5.75571C7.35146 5.50014 7.04034 5.05569 7.04034 5.05569ZM5.28474 8.55579C5.12918 8.68912 4.87361 8.83357 4.67361 8.88913C4.05137 9.11136 3.42913 8.80024 3.06245 8.43356C3.72358 8.278 4.11804 7.7891 4.23471 7.29464C4.32915 6.85018 4.15137 6.4835 4.07915 6.05571C4.01248 5.64459 4.02359 5.29458 4.1736 4.91124C4.27915 5.12235 4.39027 5.33347 4.52361 5.50014C4.9514 6.05571 5.62364 6.30017 5.76809 7.05574C5.79031 7.13352 5.80142 7.2113 5.80142 7.29464C5.81809 7.75021 5.61808 8.25022 5.28474 8.55579Z" fill="currentColor"/>
</svg>
