<?xml version="1.0" standalone="no"?>
<!DOCTYPE svg PUBLIC "-//W3C//DTD SVG 20010904//EN"
 "http://www.w3.org/TR/2001/REC-SVG-20010904/DTD/svg10.dtd">
<svg version="1.0" xmlns="http://www.w3.org/2000/svg"
 width="700.000000pt" height="700.000000pt" viewBox="0 0 700.000000 700.000000"
 preserveAspectRatio="xMidYMid meet">
<metadata>
Created by potrace 1.14, written by Peter Selinger 2001-2017
</metadata>
<g transform="translate(0.000000,700.000000) scale(0.100000,-0.100000)"
fill="#000000" stroke="none">
<path d="M5490 5603 c-89 -13 -239 -73 -299 -118 -104 -79 -192 -190 -239
-305 -38 -94 -42 -111 -49 -236 -20 -361 207 -654 560 -724 81 -16 229 -14
317 4 337 71 556 343 551 686 -2 93 -6 128 -26 199 -72 250 -268 432 -526 486
-64 14 -226 18 -289 8z m243 -417 c97 -42 158 -139 163 -259 5 -143 -48 -241
-166 -302 -50 -27 -170 -25 -230 2 -109 49 -162 137 -167 275 -2 82 -1 91 30
150 37 71 105 129 171 146 55 14 152 8 199 -12z"/>
<path d="M1060 3392 l0 -1998 428 2 c235 0 430 2 433 3 4 0 7 362 7 804 0 441
1 821 1 845 l1 42 855 0 855 0 0 -167 c0 -93 1 -474 3 -848 l2 -680 433 0 432
-1 0 1998 0 1998 -436 0 -436 0 2 -37 c1 -21 2 -377 1 -790 l-1 -753 -855 0
c-807 0 -855 1 -856 18 0 9 0 365 0 790 l0 772 -434 0 -435 0 0 -1998z"/>
</g>
</svg>
